<?xml version="1.0" encoding="UTF-8" standalone="no"?>
<svg
   version="1.1"
   id="svg1"
   width="457"
   height="457"
   viewBox="0 0 457 457"
   xmlns="http://www.w3.org/2000/svg">
  <defs id="defs1" />
  <g id="g1">
    <path
       style="fill:#8B0000"
       d="m 58.258423,443.8043 c -5.13359,-2.56062 -10.01125,-7.28427 -13.358724,-12.93688 l -2.66488,-4.5 -0.26777,-106.98251 c -0.14727,-58.84038 -0.0924,-107.44038 0.12183,-108 0.25393,-0.66317 9.139924,-0.91878 25.517774,-0.73402 l 25.12817,0.28348 v 76.96652 76.96653 l 2.11257,2.11257 c 2.64863,2.64863 8.024287,2.04694 11.583217,-1.29651 1.32495,-1.24472 6.54793,-8.68837 11.60661,-16.54143 5.05868,-7.85305 11.2226,-17.42197 13.6976,-21.26426 11.82862,-18.3632 29.81117,-46.48725 32.5,-50.8288 1.65,-2.66418 5.29413,-8.40743 8.09808,-12.76277 2.80394,-4.35534 13.13872,-20.5188 22.96617,-35.9188 9.82745,-15.4 19.12081,-29.75502 20.65192,-31.90004 1.53111,-2.14502 2.78383,-4.40197 2.78383,-5.01544 0,-0.81498 -23.70244,-1.01287 -88,-0.7347 -48.399997,0.20939 -88.000001,0.11177 -88.000001,-0.21694 0,-2.32968 24.430164,-38.9756 27.967564,-41.95213 1.67382,-1.40843 5.499426,-4.06881 9.28787,-5.59737 0,0 2.080968,-1.77806 6.24457,-3.0366 4.163602,-1.25854 100.209527,-0.13907 100.209527,-0.13907 97.14007,-0.13482 100.31022,-0.0803 103.4966,1.78067 7.04153,4.11247 9.74596,12.77672 6.42805,20.59374 -1.30137,3.06606 -9.4754,16.0492 -48.61542,77.21788 -9.50207,14.85 -19.66808,30.825 -22.59114,35.5 -2.92305,4.675 -14.3145,22.45 -25.31433,39.5 -10.99983,17.05 -25.72145,40 -32.7147,51 -23.04976,36.256 -26.11473,40.34514 -36.70825,48.97456 -4.6561,3.79284 -29.79698,19.52544 -31.201867,19.52544 -0.2473,0 -2.97235,1.61376 -6.05566,3.58613 -10.51773,6.72811 -15.19402,8.39729 -23.43281,8.36426 -5.42904,-0.0218 -8.598,-0.57776 -11.4764,-2.01351 z M 176.73482,388.45735 c 0,-0.35206 3.89169,-6.59131 8.64819,-13.86501 4.75651,-7.27371 14.48305,-22.44992 21.61453,-33.72492 7.13149,-11.275 13.96516,-22.075 15.18595,-24 10.51933,-16.58744 17.36341,-23.62995 29.04798,-29.89013 3.85184,-2.06369 15.32835,-8.61897 25.50335,-14.56729 10.175,-5.94833 21.875,-12.7325 26,-15.07594 4.125,-2.34343 11.325,-6.52842 16,-9.29997 4.675,-2.77155 10.87854,-6.43076 13.78565,-8.13159 5.54305,-3.24301 7.21435,-5.88666 7.21435,-11.41162 0,-5.21198 -0.68812,-5.73171 -29.25,-22.09226 -6.4625,-3.70179 -11.75,-7.12229 -11.75,-7.6011 0,-0.47882 4.42496,-7.97147 9.83325,-16.65034 5.40828,-8.67887 11.07604,-17.91726 12.59502,-20.52976 1.51897,-2.6125 3.25151,-4.75 3.85007,-4.75 0.97293,0 5.84527,2.7621 26.19147,14.84781 3.28339,1.95035 9.02089,5.25746 12.75,7.34914 32.38357,18.16415 47.39358,27.10482 50.61782,30.15038 5.11003,4.82685 7.41376,10.16062 7.95259,18.41242 0.56721,8.68646 -1.32269,14.61011 -6.48389,20.32294 -4.11958,4.55989 -7.97633,6.9698 -46.30633,28.93482 -7.06817,4.05042 -21.46084,12.38899 -35.21745,20.40366 -4.7946,2.79336 -11.3196,6.58669 -14.5,8.42962 -24.53979,14.21998 -41.05948,23.76704 -54.78255,31.65994 -8.8,5.06137 -20.05,11.58757 -25,14.50267 -10.25211,6.03755 -23.54262,13.73555 -34.5,19.98277 -4.125,2.35181 -8.625,5.04611 -10,5.98733 -1.375,0.94122 -5.04204,3.08982 -8.14899,4.77466 -3.10694,1.68485 -6.81944,3.83027 -8.25,4.76761 -1.43055,0.93734 -2.60101,1.41621 -2.60101,1.06416 z M 41.957439,93.367421 42.234819,33.36741 45.202963,28.008608 c 5.53496,-9.993022 12.65495,-14.141198 24.27215,-14.141198 7.42988,0 11.49627,1.411457 21.97364,7.627116 4.51767,2.680086 10.817667,6.38074 13.999997,8.223674 3.18234,1.842935 12.98607,7.52462 21.78607,12.625968 8.8,5.101347 24.775,14.334164 35.5,20.517369 10.725,6.183207 23.55,13.607577 28.5,16.498617 4.95,2.89103 10.575,6.11051 12.5,7.15439 4.399,2.38549 16.92201,9.665817 23.5,13.661876 4.55405,2.76654 8.0967,4.77969 25.73106,14.62201 3.15209,1.75928 6.01185,3.65301 6.35503,4.20829 0.41786,0.6761 -15.84399,0.89172 -49.23106,0.65274 -57.90247,-0.41445 -48.90547,1.3336 -76.35503,-14.83517 -29.81798,-17.563866 -32.07359,-18.374516 -37.694237,-13.547076 -2.74297,2.355887 -2.81695,2.696087 -3.30576,15.201876 l -0.5,12.79205 -9.01496,1.56579 c -5.05798,0.87852 -11.58626,2.82382 -14.87303,4.43188 -7.61329,3.72484 -18.12233,13.70381 -22.88939,21.73487 l -3.777384,6.36374 z"
       id="path1" />
  </g>
</svg>
